<?xml version="1.0" encoding="UTF-8" standalone="no"?><svg xmlns="http://www.w3.org/2000/svg" xmlns:xlink="http://www.w3.org/1999/xlink" contentScriptType="application/ecmascript" contentStyleType="text/css" height="847px" preserveAspectRatio="none" style="width:999px;height:847px;background:#FFFFFF;" version="1.1" viewBox="0 0 999 847" width="999px" zoomAndPan="magnify"><defs><filter height="300%" id="f173ttxox8hby5" width="300%" x="-1" y="-1"><feGaussianBlur result="blurOut" stdDeviation="2.0"/><feColorMatrix in="blurOut" result="blurOut2" type="matrix" values="0 0 0 0 0 0 0 0 0 0 0 0 0 0 0 0 0 0 .4 0"/><feOffset dx="4.0" dy="4.0" in="blurOut2" result="blurOut3"/><feBlend in="SourceGraphic" in2="blurOut3" mode="normal"/></filter></defs><g><!--MD5=[e73183ae97ca62d81f0bf19921e7c95e]
class Prenda--><rect codeLine="2" fill="#FEFECE" filter="url(#f173ttxox8hby5)" height="163.2422" id="Prenda" style="stroke:#A80036;stroke-width:1.5;" width="310" x="253" y="339"/><ellipse cx="381.25" cy="355" fill="#ADD1B2" rx="11" ry="11" style="stroke:#A80036;stroke-width:1.0;"/><path d="M384.2188,360.6406 Q383.6406,360.9375 383,361.0781 Q382.3594,361.2344 381.6563,361.2344 Q379.1563,361.2344 377.8281,359.5938 Q376.5156,357.9375 376.5156,354.8125 Q376.5156,351.6875 377.8281,350.0313 Q379.1563,348.375 381.6563,348.375 Q382.3594,348.375 383,348.5313 Q383.6563,348.6875 384.2188,348.9844 L384.2188,351.7031 Q383.5938,351.125 383,350.8594 Q382.4063,350.5781 381.7813,350.5781 Q380.4375,350.5781 379.75,351.6563 Q379.0625,352.7188 379.0625,354.8125 Q379.0625,356.9063 379.75,357.9844 Q380.4375,359.0469 381.7813,359.0469 Q382.4063,359.0469 383,358.7813 Q383.5938,358.5 384.2188,357.9219 L384.2188,360.6406 Z " fill="#000000"/><text fill="#000000" font-family="sans-serif" font-size="12" lengthAdjust="spacing" textLength="45" x="401.75" y="359.1543">Prenda</text><line style="stroke:#A80036;stroke-width:1.5;" x1="254" x2="562" y1="371" y2="371"/><rect fill="none" height="6" style="stroke:#C82930;stroke-width:1.0;" width="6" x="261" y="379"/><text fill="#000000" font-family="sans-serif" font-size="11" lengthAdjust="spacing" textLength="159" x="273" y="385.2104">TipoDePrenda tipoDePrenda</text><rect fill="none" height="6" style="stroke:#C82930;stroke-width:1.0;" width="6" x="261" y="391.8047"/><text fill="#000000" font-family="sans-serif" font-size="11" lengthAdjust="spacing" textLength="96" x="273" y="398.0151">Material material</text><rect fill="none" height="6" style="stroke:#C82930;stroke-width:1.0;" width="6" x="261" y="404.6094"/><text fill="#000000" font-family="sans-serif" font-size="11" lengthAdjust="spacing" textLength="62" x="273" y="410.8198">Color color</text><rect fill="none" height="6" style="stroke:#C82930;stroke-width:1.0;" width="6" x="261" y="417.4141"/><text fill="#000000" font-family="sans-serif" font-size="11" lengthAdjust="spacing" textLength="126" x="273" y="423.6245">Color colorSecundario</text><line style="stroke:#A80036;stroke-width:1.5;" x1="254" x2="562" y1="430.2188" y2="430.2188"/><ellipse cx="264" cy="441.2188" fill="#84BE84" rx="3" ry="3" style="stroke:#038048;stroke-width:1.0;"/><text fill="#000000" font-family="sans-serif" font-size="11" lengthAdjust="spacing" textLength="232" x="273" y="444.4292">constructor(TipoDePrenda tipoDePrenda)</text><text fill="#000000" font-family="sans-serif" font-size="11" lengthAdjust="spacing" textLength="0" x="277" y="457.2339"/><ellipse cx="264" cy="466.8281" fill="#84BE84" rx="3" ry="3" style="stroke:#038048;stroke-width:1.0;"/><text fill="#000000" font-family="sans-serif" font-size="11" lengthAdjust="spacing" textLength="284" x="273" y="470.0386">method setMaterial(Material material, Color color)</text><text fill="#000000" font-family="sans-serif" font-size="11" lengthAdjust="spacing" textLength="0" x="277" y="482.8433"/><ellipse cx="264" cy="492.4375" fill="#84BE84" rx="3" ry="3" style="stroke:#038048;stroke-width:1.0;"/><text fill="#000000" font-family="sans-serif" font-size="11" lengthAdjust="spacing" textLength="245" x="273" y="495.6479">method setColorSecundario(Color unColor)</text><!--MD5=[90d32ccc189f11441a6ce7cbb63ad387]
class Material--><rect codeLine="15" fill="#FEFECE" filter="url(#f173ttxox8hby5)" height="73.6094" id="Material" style="stroke:#A80036;stroke-width:1.5;" width="246" x="21" y="574.5"/><ellipse cx="114.75" cy="590.5" fill="#ADD1B2" rx="11" ry="11" style="stroke:#A80036;stroke-width:1.0;"/><path d="M117.7188,596.1406 Q117.1406,596.4375 116.5,596.5781 Q115.8594,596.7344 115.1563,596.7344 Q112.6563,596.7344 111.3281,595.0938 Q110.0156,593.4375 110.0156,590.3125 Q110.0156,587.1875 111.3281,585.5313 Q112.6563,583.875 115.1563,583.875 Q115.8594,583.875 116.5,584.0313 Q117.1563,584.1875 117.7188,584.4844 L117.7188,587.2031 Q117.0938,586.625 116.5,586.3594 Q115.9063,586.0781 115.2813,586.0781 Q113.9375,586.0781 113.25,587.1563 Q112.5625,588.2188 112.5625,590.3125 Q112.5625,592.4063 113.25,593.4844 Q113.9375,594.5469 115.2813,594.5469 Q115.9063,594.5469 116.5,594.2813 Q117.0938,594 117.7188,593.4219 L117.7188,596.1406 Z " fill="#000000"/><text fill="#000000" font-family="sans-serif" font-size="12" lengthAdjust="spacing" textLength="50" x="135.25" y="594.6543">Material</text><line style="stroke:#A80036;stroke-width:1.5;" x1="22" x2="266" y1="606.5" y2="606.5"/><ellipse cx="32" cy="617.5" rx="3" ry="3" style="stroke:#038048;stroke-width:1.0;fill:none;"/><text fill="#000000" font-family="sans-serif" font-size="11" lengthAdjust="spacing" textLength="143" x="41" y="620.7104">TramaDeLaPrenda trama</text><line style="stroke:#A80036;stroke-width:1.5;" x1="22" x2="266" y1="627.3047" y2="627.3047"/><rect fill="#F24D5C" height="6" style="stroke:#C82930;stroke-width:1.0;" width="6" x="29" y="635.3047"/><text fill="#000000" font-family="sans-serif" font-size="11" lengthAdjust="spacing" textLength="220" x="41" y="641.5151">constructor (TramaDeLaPrenda trama)</text><!--MD5=[c2d34dd4d7f411e4eada4cc8b66b4b78]
class TramaDeLaPrenda--><rect codeLine="21" fill="#FEFECE" filter="url(#f173ttxox8hby5)" height="112.0234" id="TramaDeLaPrenda" style="stroke:#A80036;stroke-width:1.5;" width="147" x="70.5" y="721"/><ellipse cx="85.5" cy="737" fill="#EB937F" rx="11" ry="11" style="stroke:#A80036;stroke-width:1.0;"/><path d="M89.6094,743 L81.8906,743 L81.8906,730.6094 L89.6094,730.6094 L89.6094,732.7656 L84.3438,732.7656 L84.3438,735.4375 L89.1094,735.4375 L89.1094,737.5938 L84.3438,737.5938 L84.3438,740.8438 L89.6094,740.8438 L89.6094,743 Z " fill="#000000"/><text fill="#000000" font-family="sans-serif" font-size="12" lengthAdjust="spacing" textLength="115" x="99.5" y="741.1543">TramaDeLaPrenda</text><line style="stroke:#A80036;stroke-width:1.5;" x1="71.5" x2="216.5" y1="753" y2="753"/><text fill="#000000" font-family="sans-serif" font-size="11" lengthAdjust="spacing" textLength="28" x="76.5" y="767.2104">LISA,</text><text fill="#000000" font-family="sans-serif" font-size="11" lengthAdjust="spacing" textLength="47" x="76.5" y="780.0151">RAYADA,</text><text fill="#000000" font-family="sans-serif" font-size="11" lengthAdjust="spacing" textLength="86" x="76.5" y="792.8198">CON_LUNARES,</text><text fill="#000000" font-family="sans-serif" font-size="11" lengthAdjust="spacing" textLength="72" x="76.5" y="805.6245">A_CUADROS,</text><text fill="#000000" font-family="sans-serif" font-size="11" lengthAdjust="spacing" textLength="69" x="76.5" y="818.4292">ESTAMPADO</text><line style="stroke:#A80036;stroke-width:1.5;" x1="71.5" x2="216.5" y1="825.0234" y2="825.0234"/><!--MD5=[9231a9c0b5aebf352a117bdcc0026b3f]
class TipoDePrenda--><rect codeLine="29" fill="#FEFECE" filter="url(#f173ttxox8hby5)" height="99.2188" id="TipoDePrenda" style="stroke:#A80036;stroke-width:1.5;" width="211" x="302.5" y="562"/><ellipse cx="359.75" cy="578" fill="#ADD1B2" rx="11" ry="11" style="stroke:#A80036;stroke-width:1.0;"/><path d="M362.7188,583.6406 Q362.1406,583.9375 361.5,584.0781 Q360.8594,584.2344 360.1563,584.2344 Q357.6563,584.2344 356.3281,582.5938 Q355.0156,580.9375 355.0156,577.8125 Q355.0156,574.6875 356.3281,573.0313 Q357.6563,571.375 360.1563,571.375 Q360.8594,571.375 361.5,571.5313 Q362.1563,571.6875 362.7188,571.9844 L362.7188,574.7031 Q362.0938,574.125 361.5,573.8594 Q360.9063,573.5781 360.2813,573.5781 Q358.9375,573.5781 358.25,574.6563 Q357.5625,575.7188 357.5625,577.8125 Q357.5625,579.9063 358.25,580.9844 Q358.9375,582.0469 360.2813,582.0469 Q360.9063,582.0469 361.5,581.7813 Q362.0938,581.5 362.7188,580.9219 L362.7188,583.6406 Z " fill="#000000"/><text fill="#000000" font-family="sans-serif" font-size="12" lengthAdjust="spacing" textLength="88" x="380.25" y="582.1543">TipoDePrenda</text><line style="stroke:#A80036;stroke-width:1.5;" x1="303.5" x2="512.5" y1="594" y2="594"/><rect fill="none" height="6" style="stroke:#C82930;stroke-width:1.0;" width="6" x="310.5" y="602"/><text fill="#000000" font-family="sans-serif" font-size="11" lengthAdjust="spacing" textLength="112" x="322.5" y="608.2104">Categoria categoria</text><line style="stroke:#A80036;stroke-width:1.5;" x1="303.5" x2="512.5" y1="614.8047" y2="614.8047"/><ellipse cx="313.5" cy="625.8047" fill="#84BE84" rx="3" ry="3" style="stroke:#038048;stroke-width:1.0;"/><text fill="#000000" font-family="sans-serif" font-size="11" lengthAdjust="spacing" textLength="185" x="322.5" y="629.0151">constructor(Categoria categoria)</text><text fill="#000000" font-family="sans-serif" font-size="11" lengthAdjust="spacing" textLength="0" x="326.5" y="641.8198"/><ellipse cx="313.5" cy="651.4141" fill="#84BE84" rx="3" ry="3" style="stroke:#038048;stroke-width:1.0;"/><text fill="#000000" font-family="sans-serif" font-size="11" lengthAdjust="spacing" textLength="108" x="322.5" y="654.6245">method categoria()</text><!--MD5=[7e1ce8ab2bf669717f28e918f4971b9a]
class Categoria--><rect codeLine="38" fill="#FEFECE" filter="url(#f173ttxox8hby5)" height="99.2188" id="Categoria" style="stroke:#A80036;stroke-width:1.5;" width="113" x="351.5" y="727.5"/><ellipse cx="375.5" cy="743.5" fill="#EB937F" rx="11" ry="11" style="stroke:#A80036;stroke-width:1.0;"/><path d="M379.6094,749.5 L371.8906,749.5 L371.8906,737.1094 L379.6094,737.1094 L379.6094,739.2656 L374.3438,739.2656 L374.3438,741.9375 L379.1094,741.9375 L379.1094,744.0938 L374.3438,744.0938 L374.3438,747.3438 L379.6094,747.3438 L379.6094,749.5 Z " fill="#000000"/><text fill="#000000" font-family="sans-serif" font-size="12" lengthAdjust="spacing" textLength="61" x="391.5" y="747.6543">Categoria</text><line style="stroke:#A80036;stroke-width:1.5;" x1="352.5" x2="463.5" y1="759.5" y2="759.5"/><text fill="#000000" font-family="sans-serif" font-size="11" lengthAdjust="spacing" textLength="101" x="357.5" y="773.7104">PARTE_SUPERIOR,</text><text fill="#000000" font-family="sans-serif" font-size="11" lengthAdjust="spacing" textLength="58" x="357.5" y="786.5151">CALZADO,</text><text fill="#000000" font-family="sans-serif" font-size="11" lengthAdjust="spacing" textLength="95" x="357.5" y="799.3198">PARTE_INFERIOR,</text><text fill="#000000" font-family="sans-serif" font-size="11" lengthAdjust="spacing" textLength="74" x="357.5" y="812.1245">ACCESORIOS</text><line style="stroke:#A80036;stroke-width:1.5;" x1="352.5" x2="463.5" y1="818.7188" y2="818.7188"/><!--MD5=[18eee71c88ab61f27581b8cbdd3ef5ee]
class Color--><rect codeLine="45" fill="#FEFECE" filter="url(#f173ttxox8hby5)" height="99.2188" id="Color" style="stroke:#A80036;stroke-width:1.5;" width="245" x="548.5" y="562"/><ellipse cx="650.75" cy="578" fill="#ADD1B2" rx="11" ry="11" style="stroke:#A80036;stroke-width:1.0;"/><path d="M653.7188,583.6406 Q653.1406,583.9375 652.5,584.0781 Q651.8594,584.2344 651.1563,584.2344 Q648.6563,584.2344 647.3281,582.5938 Q646.0156,580.9375 646.0156,577.8125 Q646.0156,574.6875 647.3281,573.0313 Q648.6563,571.375 651.1563,571.375 Q651.8594,571.375 652.5,571.5313 Q653.1563,571.6875 653.7188,571.9844 L653.7188,574.7031 Q653.0938,574.125 652.5,573.8594 Q651.9063,573.5781 651.2813,573.5781 Q649.9375,573.5781 649.25,574.6563 Q648.5625,575.7188 648.5625,577.8125 Q648.5625,579.9063 649.25,580.9844 Q649.9375,582.0469 651.2813,582.0469 Q651.9063,582.0469 652.5,581.7813 Q653.0938,581.5 653.7188,580.9219 L653.7188,583.6406 Z " fill="#000000"/><text fill="#000000" font-family="sans-serif" font-size="12" lengthAdjust="spacing" textLength="32" x="671.25" y="582.1543">Color</text><line style="stroke:#A80036;stroke-width:1.5;" x1="549.5" x2="792.5" y1="594" y2="594"/><rect fill="none" height="6" style="stroke:#C82930;stroke-width:1.0;" width="6" x="556.5" y="602"/><text fill="#000000" font-family="sans-serif" font-size="11" lengthAdjust="spacing" textLength="40" x="568.5" y="608.2104">int rojo</text><rect fill="none" height="6" style="stroke:#C82930;stroke-width:1.0;" width="6" x="556.5" y="614.8047"/><text fill="#000000" font-family="sans-serif" font-size="11" lengthAdjust="spacing" textLength="50" x="568.5" y="621.0151">int verde</text><rect fill="none" height="6" style="stroke:#C82930;stroke-width:1.0;" width="6" x="556.5" y="627.6094"/><text fill="#000000" font-family="sans-serif" font-size="11" lengthAdjust="spacing" textLength="40" x="568.5" y="633.8198">int azul</text><line style="stroke:#A80036;stroke-width:1.5;" x1="549.5" x2="792.5" y1="640.4141" y2="640.4141"/><ellipse cx="559.5" cy="651.4141" fill="#84BE84" rx="3" ry="3" style="stroke:#038048;stroke-width:1.0;"/><text fill="#000000" font-family="sans-serif" font-size="11" lengthAdjust="spacing" textLength="219" x="568.5" y="654.6245">constructor(int rojo, int verde, int azul)</text><!--MD5=[35a64b983c79880384a2fd9b61f0c24b]
class Usuario--><rect codeLine="60" fill="#FEFECE" filter="url(#f173ttxox8hby5)" height="137.6328" id="Usuario" style="stroke:#A80036;stroke-width:1.5;" width="296" x="7" y="141"/><ellipse cx="126.75" cy="157" fill="#ADD1B2" rx="11" ry="11" style="stroke:#A80036;stroke-width:1.0;"/><path d="M129.7188,162.6406 Q129.1406,162.9375 128.5,163.0781 Q127.8594,163.2344 127.1563,163.2344 Q124.6563,163.2344 123.3281,161.5938 Q122.0156,159.9375 122.0156,156.8125 Q122.0156,153.6875 123.3281,152.0313 Q124.6563,150.375 127.1563,150.375 Q127.8594,150.375 128.5,150.5313 Q129.1563,150.6875 129.7188,150.9844 L129.7188,153.7031 Q129.0938,153.125 128.5,152.8594 Q127.9063,152.5781 127.2813,152.5781 Q125.9375,152.5781 125.25,153.6563 Q124.5625,154.7188 124.5625,156.8125 Q124.5625,158.9063 125.25,159.9844 Q125.9375,161.0469 127.2813,161.0469 Q127.9063,161.0469 128.5,160.7813 Q129.0938,160.5 129.7188,159.9219 L129.7188,162.6406 Z " fill="#000000"/><text fill="#000000" font-family="sans-serif" font-size="12" lengthAdjust="spacing" textLength="48" x="147.25" y="161.1543">Usuario</text><line style="stroke:#A80036;stroke-width:1.5;" x1="8" x2="302" y1="173" y2="173"/><rect fill="none" height="6" style="stroke:#C82930;stroke-width:1.0;" width="6" x="15" y="181"/><text fill="#000000" font-family="sans-serif" font-size="11" lengthAdjust="spacing" textLength="192" x="27" y="187.2104">List&lt;Prenda&gt; prendasGuardadas</text><rect fill="none" height="6" style="stroke:#C82930;stroke-width:1.0;" width="6" x="15" y="193.8047"/><text fill="#000000" font-family="sans-serif" font-size="11" lengthAdjust="spacing" textLength="94" x="27" y="200.0151">Prenda borrador</text><line style="stroke:#A80036;stroke-width:1.5;" x1="8" x2="302" y1="206.6094" y2="206.6094"/><ellipse cx="18" cy="217.6094" fill="#84BE84" rx="3" ry="3" style="stroke:#038048;stroke-width:1.0;"/><text fill="#000000" font-family="sans-serif" font-size="11" lengthAdjust="spacing" textLength="267" x="27" y="220.8198">method guardarUnaPrenda(Prenda unaPrenda)</text><text fill="#000000" font-family="sans-serif" font-size="11" lengthAdjust="spacing" textLength="0" x="31" y="233.6245"/><ellipse cx="18" cy="243.2188" fill="#84BE84" rx="3" ry="3" style="stroke:#038048;stroke-width:1.0;"/><text fill="#000000" font-family="sans-serif" font-size="11" lengthAdjust="spacing" textLength="270" x="27" y="246.4292">method guardarEnBorrador(Prenda unaPrenda)</text><text fill="#000000" font-family="sans-serif" font-size="11" lengthAdjust="spacing" textLength="0" x="31" y="259.2339"/><ellipse cx="18" cy="268.8281" fill="#84BE84" rx="3" ry="3" style="stroke:#038048;stroke-width:1.0;"/><text fill="#000000" font-family="sans-serif" font-size="11" lengthAdjust="spacing" textLength="155" x="27" y="272.0386">method terminarBorrador()</text><!--MD5=[55f48f56346c1bb205216335dfcec683]
class Uniforme--><rect codeLine="76" fill="#FEFECE" filter="url(#f173ttxox8hby5)" height="124.8281" id="Uniforme" style="stroke:#A80036;stroke-width:1.5;" width="647" x="338.5" y="147.5"/><ellipse cx="629.75" cy="163.5" fill="#ADD1B2" rx="11" ry="11" style="stroke:#A80036;stroke-width:1.0;"/><path d="M632.7188,169.1406 Q632.1406,169.4375 631.5,169.5781 Q630.8594,169.7344 630.1563,169.7344 Q627.6563,169.7344 626.3281,168.0938 Q625.0156,166.4375 625.0156,163.3125 Q625.0156,160.1875 626.3281,158.5313 Q627.6563,156.875 630.1563,156.875 Q630.8594,156.875 631.5,157.0313 Q632.1563,157.1875 632.7188,157.4844 L632.7188,160.2031 Q632.0938,159.625 631.5,159.3594 Q630.9063,159.0781 630.2813,159.0781 Q628.9375,159.0781 628.25,160.1563 Q627.5625,161.2188 627.5625,163.3125 Q627.5625,165.4063 628.25,166.4844 Q628.9375,167.5469 630.2813,167.5469 Q630.9063,167.5469 631.5,167.2813 Q632.0938,167 632.7188,166.4219 L632.7188,169.1406 Z " fill="#000000"/><text fill="#000000" font-family="sans-serif" font-size="12" lengthAdjust="spacing" textLength="56" x="650.25" y="167.6543">Uniforme</text><line style="stroke:#A80036;stroke-width:1.5;" x1="339.5" x2="984.5" y1="179.5" y2="179.5"/><rect fill="none" height="6" style="stroke:#C82930;stroke-width:1.0;" width="6" x="346.5" y="187.5"/><text fill="#000000" font-family="sans-serif" font-size="11" lengthAdjust="spacing" textLength="123" x="358.5" y="193.7104">Prenda parteSuperior</text><rect fill="none" height="6" style="stroke:#C82930;stroke-width:1.0;" width="6" x="346.5" y="200.3047"/><text fill="#000000" font-family="sans-serif" font-size="11" lengthAdjust="spacing" textLength="115" x="358.5" y="206.5151">Prenda parteInferior</text><rect fill="none" height="6" style="stroke:#C82930;stroke-width:1.0;" width="6" x="346.5" y="213.1094"/><text fill="#000000" font-family="sans-serif" font-size="11" lengthAdjust="spacing" textLength="86" x="358.5" y="219.3198">Prenda calzado</text><line style="stroke:#A80036;stroke-width:1.5;" x1="339.5" x2="984.5" y1="225.9141" y2="225.9141"/><ellipse cx="349.5" cy="236.9141" fill="#84BE84" rx="3" ry="3" style="stroke:#038048;stroke-width:1.0;"/><text fill="#000000" font-family="sans-serif" font-size="11" lengthAdjust="spacing" textLength="417" x="358.5" y="240.1245">constructor (Prenda parteSuperior, Prenda parteInferior, Prenda calzado)</text><ellipse cx="349.5" cy="249.7188" fill="#84BE84" rx="3" ry="3" style="stroke:#038048;stroke-width:1.0;"/><text fill="#000000" font-family="sans-serif" font-size="11" lengthAdjust="spacing" textLength="417" x="358.5" y="252.9292">method verificarQueCondice(Prenda unaPrenda, Categoria unaCategoria)</text><ellipse cx="349.5" cy="262.5234" fill="#84BE84" rx="3" ry="3" style="stroke:#038048;stroke-width:1.0;"/><text fill="#000000" font-family="sans-serif" font-size="11" lengthAdjust="spacing" textLength="621" x="358.5" y="265.7339">method verificarQueTodasLasPrendasCoincidan(Prenda parteSuperior, Prenda parteInferior, Prenda calzado)</text><!--MD5=[13b71c14ee3ff8d317f423e99883d85b]
class Institucion--><rect codeLine="86" fill="#FEFECE" filter="url(#f173ttxox8hby5)" height="73.6094" id="Institucion" style="stroke:#A80036;stroke-width:1.5;" width="258" x="533" y="7"/><ellipse cx="625.25" cy="23" fill="#ADD1B2" rx="11" ry="11" style="stroke:#A80036;stroke-width:1.0;"/><path d="M628.2188,28.6406 Q627.6406,28.9375 627,29.0781 Q626.3594,29.2344 625.6563,29.2344 Q623.1563,29.2344 621.8281,27.5938 Q620.5156,25.9375 620.5156,22.8125 Q620.5156,19.6875 621.8281,18.0313 Q623.1563,16.375 625.6563,16.375 Q626.3594,16.375 627,16.5313 Q627.6563,16.6875 628.2188,16.9844 L628.2188,19.7031 Q627.5938,19.125 627,18.8594 Q626.4063,18.5781 625.7813,18.5781 Q624.4375,18.5781 623.75,19.6563 Q623.0625,20.7188 623.0625,22.8125 Q623.0625,24.9063 623.75,25.9844 Q624.4375,27.0469 625.7813,27.0469 Q626.4063,27.0469 627,26.7813 Q627.5938,26.5 628.2188,25.9219 L628.2188,28.6406 Z " fill="#000000"/><text fill="#000000" font-family="sans-serif" font-size="12" lengthAdjust="spacing" textLength="65" x="645.75" y="27.1543">Institucion</text><line style="stroke:#A80036;stroke-width:1.5;" x1="534" x2="790" y1="39" y2="39"/><rect fill="none" height="6" style="stroke:#C82930;stroke-width:1.0;" width="6" x="541" y="47"/><text fill="#000000" font-family="sans-serif" font-size="11" lengthAdjust="spacing" textLength="111" x="553" y="53.2104">Uniforme uniforme;</text><line style="stroke:#A80036;stroke-width:1.5;" x1="534" x2="790" y1="59.8047" y2="59.8047"/><ellipse cx="544" cy="70.8047" fill="#84BE84" rx="3" ry="3" style="stroke:#038048;stroke-width:1.0;"/><text fill="#000000" font-family="sans-serif" font-size="11" lengthAdjust="spacing" textLength="232" x="553" y="74.0151">method setUniforme(Uniforme uniforme)</text><!--MD5=[0cc917b95a34d168ede202862e7868e8]
link Prenda to Material--><path codeLine="53" d="M295.27,502.2 C261.75,526.2 226.52,551.42 198.51,571.48 " fill="none" id="Prenda-to-Material" style="stroke:#A80036;stroke-width:1.0;"/><polygon fill="#A80036" points="194.43,574.4,204.0812,572.4366,198.5025,571.4992,199.4399,565.9206,194.43,574.4" style="stroke:#A80036;stroke-width:1.0;"/><text fill="#000000" font-family="sans-serif" font-size="13" lengthAdjust="spacing" textLength="8" x="194.7003" y="563.5691">1</text><!--MD5=[e7d431aeebff480bc36838e5189b8e95]
link Prenda to Color--><path codeLine="54" d="M520.3,502.2 C546.96,521.36 574.69,541.29 599,558.76 " fill="none" id="Prenda-to-Color" style="stroke:#A80036;stroke-width:1.0;"/><polygon fill="#A80036" points="603.18,561.76,598.2039,553.2607,599.1191,558.843,593.5367,559.7581,603.18,561.76" style="stroke:#A80036;stroke-width:1.0;"/><text fill="#000000" font-family="sans-serif" font-size="13" lengthAdjust="spacing" textLength="8" x="585.0803" y="550.7715">1</text><!--MD5=[f3c77d5994c30e67a8d06208bf140a4d]
link Prenda to TipoDePrenda--><path codeLine="55" d="M408,502.2 C408,520.57 408,539.65 408,556.58 " fill="none" id="Prenda-to-TipoDePrenda" style="stroke:#A80036;stroke-width:1.0;"/><polygon fill="#A80036" points="408,561.76,412,552.76,408,556.76,404,552.76,408,561.76" style="stroke:#A80036;stroke-width:1.0;"/><text fill="#000000" font-family="sans-serif" font-size="13" lengthAdjust="spacing" textLength="8" x="399.4375" y="550.7715">1</text><!--MD5=[96c5bda86e5fa183894a675e8b6e0949]
link TipoDePrenda to Categoria--><path codeLine="57" d="M408,661.11 C408,680.3 408,702.41 408,722.08 " fill="none" id="TipoDePrenda-to-Categoria" style="stroke:#A80036;stroke-width:1.0;"/><polygon fill="#A80036" points="408,727.29,412,718.29,408,722.29,404,718.29,408,727.29" style="stroke:#A80036;stroke-width:1.0;"/><text fill="#000000" font-family="sans-serif" font-size="13" lengthAdjust="spacing" textLength="8" x="399.4375" y="716.3057">1</text><!--MD5=[a314a1a1f9d612412388e8f882f3662e]
link Material to TramaDeLaPrenda--><path codeLine="58" d="M144,648.79 C144,668.47 144,693.3 144,715.79 " fill="none" id="Material-to-TramaDeLaPrenda" style="stroke:#A80036;stroke-width:1.0;"/><polygon fill="#A80036" points="144,720.85,148,711.85,144,715.85,140,711.85,144,720.85" style="stroke:#A80036;stroke-width:1.0;"/><text fill="#000000" font-family="sans-serif" font-size="13" lengthAdjust="spacing" textLength="8" x="135.4875" y="709.7687">1</text><!--MD5=[5c91cff2929817c176bf848262ab7bd6]
link Usuario to Prenda--><path codeLine="73" d="M237.84,279.27 C259.64,297.23 283.41,316.82 306.08,335.51 " fill="none" id="Usuario-to-Prenda" style="stroke:#A80036;stroke-width:1.0;"/><polygon fill="#A80036" points="310,338.74,305.608,329.9246,306.1449,335.556,300.5136,336.0928,310,338.74" style="stroke:#A80036;stroke-width:1.0;"/><text fill="#000000" font-family="sans-serif" font-size="13" lengthAdjust="spacing" textLength="7" x="293.9602" y="327.8523">*</text><!--MD5=[50be1fea9a30622574d91fb33b537194]
link Uniforme to Prenda--><path codeLine="92" d="M586.82,272.71 C562.8,292.43 535.79,314.6 510.18,335.62 " fill="none" id="Uniforme-to-Prenda" style="stroke:#A80036;stroke-width:1.0;"/><polygon fill="#A80036" points="506.09,338.98,515.5823,336.3538,509.9521,335.8045,510.5014,330.1743,506.09,338.98" style="stroke:#A80036;stroke-width:1.0;"/><text fill="#000000" font-family="sans-serif" font-size="13" lengthAdjust="spacing" textLength="7" x="507.81" y="327.8353">*</text><!--MD5=[4b16613726b150f0c6d70a19f1b43220]
link Institucion to Uniforme--><path codeLine="93" d="M662,81.4 C662,99.23 662,121.28 662,142.01 " fill="none" id="Institucion-to-Uniforme" style="stroke:#A80036;stroke-width:1.0;"/><polygon fill="#A80036" points="662,147.25,666,138.25,662,142.25,658,138.25,662,147.25" style="stroke:#A80036;stroke-width:1.0;"/><text fill="#000000" font-family="sans-serif" font-size="13" lengthAdjust="spacing" textLength="8" x="653.5625" y="136.65">1</text><!--MD5=[8dcf44074f091ca2d1addb5119147078]
@startuml segunda-iteracion

class Prenda {
  - TipoDePrenda tipoDePrenda
  - Material material
  - Color color
  - Color colorSecundario

  + constructor(TipoDePrenda tipoDePrenda)

  + method setMaterial(Material material, Color color)

  + method setColorSecundario(Color unColor)
}

class Material {
    + TramaDeLaPrenda trama

    - constructor (TramaDeLaPrenda trama)
}

enum TramaDeLaPrenda {
  LISA, 
  RAYADA, 
  CON_LUNARES, 
  A_CUADROS, 
  ESTAMPADO
}

class TipoDePrenda {
  - Categoria categoria

  + constructor(Categoria categoria) 

  + method categoria()
}


enum Categoria {
  PARTE_SUPERIOR, 
  CALZADO, 
  PARTE_INFERIOR, 
  ACCESORIOS
}

class Color {
  - int rojo
  - int verde
  - int azul

  + constructor(int rojo, int verde, int azul)
}

Prenda - -> "1" Material
Prenda - -> "1" Color
Prenda - -> "1" TipoDePrenda

TipoDePrenda - -> "1" Categoria
Material - -> "1" TramaDeLaPrenda

class Usuario {
  - List<Prenda> prendasGuardadas
  - Prenda borrador

  + method guardarUnaPrenda(Prenda unaPrenda)

  + method guardarEnBorrador(Prenda unaPrenda)

  + method terminarBorrador()

}


Usuario - -> "*" Prenda


class Uniforme {
  - Prenda parteSuperior
  - Prenda parteInferior
  - Prenda calzado

  + constructor (Prenda parteSuperior, Prenda parteInferior, Prenda calzado)
  + method verificarQueCondice(Prenda unaPrenda, Categoria unaCategoria)
  + method verificarQueTodasLasPrendasCoincidan(Prenda parteSuperior, Prenda parteInferior, Prenda calzado)
}

class Institucion {
  - Uniforme uniforme;

  + method setUniforme(Uniforme uniforme)
}

Uniforme - -> "*" Prenda
Institucion - -> "1" Uniforme

@enduml

PlantUML version 1.2022.0(Tue Jan 11 13:16:42 ART 2022)
(GPL source distribution)
Java Runtime: OpenJDK Runtime Environment
JVM: OpenJDK 64-Bit Server VM
Default Encoding: UTF-8
Language: en
Country: US
--></g></svg>