<?xml version="1.0" encoding="UTF-8" standalone="no"?><svg xmlns="http://www.w3.org/2000/svg" xmlns:xlink="http://www.w3.org/1999/xlink" contentScriptType="application/ecmascript" contentStyleType="text/css" height="487px" preserveAspectRatio="none" style="width:1360px;height:487px;background:#FFFFFF;" version="1.1" viewBox="0 0 1360 487" width="1360px" zoomAndPan="magnify"><defs><filter height="300%" id="fdde2kt3c9q9b" width="300%" x="-1" y="-1"><feGaussianBlur result="blurOut" stdDeviation="2.0"/><feColorMatrix in="blurOut" result="blurOut2" type="matrix" values="0 0 0 0 0 0 0 0 0 0 0 0 0 0 0 0 0 0 .4 0"/><feOffset dx="4.0" dy="4.0" in="blurOut2" result="blurOut3"/><feBlend in="SourceGraphic" in2="blurOut3" mode="normal"/></filter></defs><g><!--MD5=[e73183ae97ca62d81f0bf19921e7c95e]
class Prenda--><rect codeLine="2" fill="#FEFECE" filter="url(#fdde2kt3c9q9b)" height="112.0234" id="Prenda" style="stroke:#A80036;stroke-width:1.5;" width="252" x="576" y="7"/><ellipse cx="675.25" cy="23" fill="#ADD1B2" rx="11" ry="11" style="stroke:#A80036;stroke-width:1.0;"/><path d="M678.2188,28.6406 Q677.6406,28.9375 677,29.0781 Q676.3594,29.2344 675.6563,29.2344 Q673.1563,29.2344 671.8281,27.5938 Q670.5156,25.9375 670.5156,22.8125 Q670.5156,19.6875 671.8281,18.0313 Q673.1563,16.375 675.6563,16.375 Q676.3594,16.375 677,16.5313 Q677.6563,16.6875 678.2188,16.9844 L678.2188,19.7031 Q677.5938,19.125 677,18.8594 Q676.4063,18.5781 675.7813,18.5781 Q674.4375,18.5781 673.75,19.6563 Q673.0625,20.7188 673.0625,22.8125 Q673.0625,24.9063 673.75,25.9844 Q674.4375,27.0469 675.7813,27.0469 Q676.4063,27.0469 677,26.7813 Q677.5938,26.5 678.2188,25.9219 L678.2188,28.6406 Z " fill="#000000"/><text fill="#000000" font-family="sans-serif" font-size="12" lengthAdjust="spacing" textLength="45" x="695.75" y="27.1543">Prenda</text><line style="stroke:#A80036;stroke-width:1.5;" x1="577" x2="827" y1="39" y2="39"/><rect fill="none" height="6" style="stroke:#C82930;stroke-width:1.0;" width="6" x="584" y="47"/><text fill="#000000" font-family="sans-serif" font-size="11" lengthAdjust="spacing" textLength="85" x="596" y="53.2104">String material</text><rect fill="none" height="6" style="stroke:#C82930;stroke-width:1.0;" width="6" x="584" y="59.8047"/><text fill="#000000" font-family="sans-serif" font-size="11" lengthAdjust="spacing" textLength="114" x="596" y="66.0151">String colorPrincipal</text><rect fill="none" height="6" style="stroke:#C82930;stroke-width:1.0;" width="6" x="584" y="72.6094"/><text fill="#000000" font-family="sans-serif" font-size="11" lengthAdjust="spacing" textLength="130" x="596" y="78.8198">String colorSecundario</text><line style="stroke:#A80036;stroke-width:1.5;" x1="577" x2="827" y1="85.4141" y2="85.4141"/><ellipse cx="587" cy="96.4141" fill="#84BE84" rx="3" ry="3" style="stroke:#038048;stroke-width:1.0;"/><text fill="#000000" font-family="sans-serif" font-size="11" lengthAdjust="spacing" textLength="226" x="596" y="99.6245">method Prenda(material, colorPrincipal)</text><ellipse cx="587" cy="109.2188" fill="#84BE84" rx="3" ry="3" style="stroke:#038048;stroke-width:1.0;"/><text fill="#000000" font-family="sans-serif" font-size="11" lengthAdjust="spacing" textLength="211" x="596" y="112.4292">method setColorSecundario(unColor)</text><!--MD5=[b6a7d20a1d2b57f9903481c57dec501a]
class PrendaSuperior--><rect codeLine="11" fill="#FEFECE" filter="url(#fdde2kt3c9q9b)" height="73.6094" id="PrendaSuperior" style="stroke:#A80036;stroke-width:1.5;" width="330" x="7" y="179"/><ellipse cx="118.75" cy="195" fill="#ADD1B2" rx="11" ry="11" style="stroke:#A80036;stroke-width:1.0;"/><path d="M121.7188,200.6406 Q121.1406,200.9375 120.5,201.0781 Q119.8594,201.2344 119.1563,201.2344 Q116.6563,201.2344 115.3281,199.5938 Q114.0156,197.9375 114.0156,194.8125 Q114.0156,191.6875 115.3281,190.0313 Q116.6563,188.375 119.1563,188.375 Q119.8594,188.375 120.5,188.5313 Q121.1563,188.6875 121.7188,188.9844 L121.7188,191.7031 Q121.0938,191.125 120.5,190.8594 Q119.9063,190.5781 119.2813,190.5781 Q117.9375,190.5781 117.25,191.6563 Q116.5625,192.7188 116.5625,194.8125 Q116.5625,196.9063 117.25,197.9844 Q117.9375,199.0469 119.2813,199.0469 Q119.9063,199.0469 120.5,198.7813 Q121.0938,198.5 121.7188,197.9219 L121.7188,200.6406 Z " fill="#000000"/><text fill="#000000" font-family="sans-serif" font-size="12" lengthAdjust="spacing" textLength="98" x="139.25" y="199.1543">PrendaSuperior</text><line style="stroke:#A80036;stroke-width:1.5;" x1="8" x2="336" y1="211" y2="211"/><rect fill="none" height="6" style="stroke:#C82930;stroke-width:1.0;" width="6" x="15" y="219"/><text fill="#000000" font-family="sans-serif" font-size="11" lengthAdjust="spacing" textLength="138" x="27" y="225.2104">TipoPrendaSuperior tipo</text><line style="stroke:#A80036;stroke-width:1.5;" x1="8" x2="336" y1="231.8047" y2="231.8047"/><ellipse cx="18" cy="242.8047" fill="#84BE84" rx="3" ry="3" style="stroke:#038048;stroke-width:1.0;"/><text fill="#000000" font-family="sans-serif" font-size="11" lengthAdjust="spacing" textLength="304" x="27" y="246.0151">method PrendaSuperior(material, colorPrincipal, tipo)</text><!--MD5=[856249029afeafbf4988a24566b8c6eb]
class PrendaInferior--><rect codeLine="17" fill="#FEFECE" filter="url(#fdde2kt3c9q9b)" height="73.6094" id="PrendaInferior" style="stroke:#A80036;stroke-width:1.5;" width="322" x="372" y="179"/><ellipse cx="484.25" cy="195" fill="#ADD1B2" rx="11" ry="11" style="stroke:#A80036;stroke-width:1.0;"/><path d="M487.2188,200.6406 Q486.6406,200.9375 486,201.0781 Q485.3594,201.2344 484.6563,201.2344 Q482.1563,201.2344 480.8281,199.5938 Q479.5156,197.9375 479.5156,194.8125 Q479.5156,191.6875 480.8281,190.0313 Q482.1563,188.375 484.6563,188.375 Q485.3594,188.375 486,188.5313 Q486.6563,188.6875 487.2188,188.9844 L487.2188,191.7031 Q486.5938,191.125 486,190.8594 Q485.4063,190.5781 484.7813,190.5781 Q483.4375,190.5781 482.75,191.6563 Q482.0625,192.7188 482.0625,194.8125 Q482.0625,196.9063 482.75,197.9844 Q483.4375,199.0469 484.7813,199.0469 Q485.4063,199.0469 486,198.7813 Q486.5938,198.5 487.2188,197.9219 L487.2188,200.6406 Z " fill="#000000"/><text fill="#000000" font-family="sans-serif" font-size="12" lengthAdjust="spacing" textLength="89" x="504.75" y="199.1543">PrendaInferior</text><line style="stroke:#A80036;stroke-width:1.5;" x1="373" x2="693" y1="211" y2="211"/><rect fill="none" height="6" style="stroke:#C82930;stroke-width:1.0;" width="6" x="380" y="219"/><text fill="#000000" font-family="sans-serif" font-size="11" lengthAdjust="spacing" textLength="130" x="392" y="225.2104">TipoPrendaInferior tipo</text><line style="stroke:#A80036;stroke-width:1.5;" x1="373" x2="693" y1="231.8047" y2="231.8047"/><ellipse cx="383" cy="242.8047" fill="#84BE84" rx="3" ry="3" style="stroke:#038048;stroke-width:1.0;"/><text fill="#000000" font-family="sans-serif" font-size="11" lengthAdjust="spacing" textLength="296" x="392" y="246.0151">method PrendaInferior(material, colorPrincipal, tipo)</text><!--MD5=[abe55da70eea580133e4938cd5dd2b9d]
class Calzado--><rect codeLine="23" fill="#FEFECE" filter="url(#fdde2kt3c9q9b)" height="73.6094" id="Calzado" style="stroke:#A80036;stroke-width:1.5;" width="285" x="729.5" y="179"/><ellipse cx="843.75" cy="195" fill="#ADD1B2" rx="11" ry="11" style="stroke:#A80036;stroke-width:1.0;"/><path d="M846.7188,200.6406 Q846.1406,200.9375 845.5,201.0781 Q844.8594,201.2344 844.1563,201.2344 Q841.6563,201.2344 840.3281,199.5938 Q839.0156,197.9375 839.0156,194.8125 Q839.0156,191.6875 840.3281,190.0313 Q841.6563,188.375 844.1563,188.375 Q844.8594,188.375 845.5,188.5313 Q846.1563,188.6875 846.7188,188.9844 L846.7188,191.7031 Q846.0938,191.125 845.5,190.8594 Q844.9063,190.5781 844.2813,190.5781 Q842.9375,190.5781 842.25,191.6563 Q841.5625,192.7188 841.5625,194.8125 Q841.5625,196.9063 842.25,197.9844 Q842.9375,199.0469 844.2813,199.0469 Q844.9063,199.0469 845.5,198.7813 Q846.0938,198.5 846.7188,197.9219 L846.7188,200.6406 Z " fill="#000000"/><text fill="#000000" font-family="sans-serif" font-size="12" lengthAdjust="spacing" textLength="48" x="864.25" y="199.1543">Calzado</text><line style="stroke:#A80036;stroke-width:1.5;" x1="730.5" x2="1013.5" y1="211" y2="211"/><ellipse cx="740.5" cy="222" rx="3" ry="3" style="stroke:#038048;stroke-width:1.0;fill:none;"/><text fill="#000000" font-family="sans-serif" font-size="11" lengthAdjust="spacing" textLength="93" x="749.5" y="225.2104">TipoCalzado tipo</text><line style="stroke:#A80036;stroke-width:1.5;" x1="730.5" x2="1013.5" y1="231.8047" y2="231.8047"/><ellipse cx="740.5" cy="242.8047" fill="#84BE84" rx="3" ry="3" style="stroke:#038048;stroke-width:1.0;"/><text fill="#000000" font-family="sans-serif" font-size="11" lengthAdjust="spacing" textLength="259" x="749.5" y="246.0151">method Calzado(material, colorPrincipal, tipo)</text><!--MD5=[5863db74022cf00717131c373ca7b0fd]
class Accesorio--><rect codeLine="29" fill="#FEFECE" filter="url(#fdde2kt3c9q9b)" height="73.6094" id="Accesorio" style="stroke:#A80036;stroke-width:1.5;" width="296" x="1050" y="179"/><ellipse cx="1163.25" cy="195" fill="#ADD1B2" rx="11" ry="11" style="stroke:#A80036;stroke-width:1.0;"/><path d="M1166.2188,200.6406 Q1165.6406,200.9375 1165,201.0781 Q1164.3594,201.2344 1163.6563,201.2344 Q1161.1563,201.2344 1159.8281,199.5938 Q1158.5156,197.9375 1158.5156,194.8125 Q1158.5156,191.6875 1159.8281,190.0313 Q1161.1563,188.375 1163.6563,188.375 Q1164.3594,188.375 1165,188.5313 Q1165.6563,188.6875 1166.2188,188.9844 L1166.2188,191.7031 Q1165.5938,191.125 1165,190.8594 Q1164.4063,190.5781 1163.7813,190.5781 Q1162.4375,190.5781 1161.75,191.6563 Q1161.0625,192.7188 1161.0625,194.8125 Q1161.0625,196.9063 1161.75,197.9844 Q1162.4375,199.0469 1163.7813,199.0469 Q1164.4063,199.0469 1165,198.7813 Q1165.5938,198.5 1166.2188,197.9219 L1166.2188,200.6406 Z " fill="#000000"/><text fill="#000000" font-family="sans-serif" font-size="12" lengthAdjust="spacing" textLength="61" x="1183.75" y="199.1543">Accesorio</text><line style="stroke:#A80036;stroke-width:1.5;" x1="1051" x2="1345" y1="211" y2="211"/><rect fill="none" height="6" style="stroke:#C82930;stroke-width:1.0;" width="6" x="1058" y="219"/><text fill="#000000" font-family="sans-serif" font-size="11" lengthAdjust="spacing" textLength="104" x="1070" y="225.2104">TipoAccesorio tipo</text><line style="stroke:#A80036;stroke-width:1.5;" x1="1051" x2="1345" y1="231.8047" y2="231.8047"/><ellipse cx="1061" cy="242.8047" fill="#84BE84" rx="3" ry="3" style="stroke:#038048;stroke-width:1.0;"/><text fill="#000000" font-family="sans-serif" font-size="11" lengthAdjust="spacing" textLength="270" x="1070" y="246.0151">method Accesorio(material, colorPrincipal, tipo)</text><!--MD5=[d014f0d58cfa3026526e190342549814]
class TipoPrendaSuperior--><rect codeLine="35" fill="#FEFECE" filter="url(#fdde2kt3c9q9b)" height="99.2188" id="TipoPrendaSuperior" style="stroke:#A80036;stroke-width:1.5;" width="156" x="94" y="374"/><ellipse cx="109" cy="390" fill="#EB937F" rx="11" ry="11" style="stroke:#A80036;stroke-width:1.0;"/><path d="M113.1094,396 L105.3906,396 L105.3906,383.6094 L113.1094,383.6094 L113.1094,385.7656 L107.8438,385.7656 L107.8438,388.4375 L112.6094,388.4375 L112.6094,390.5938 L107.8438,390.5938 L107.8438,393.8438 L113.1094,393.8438 L113.1094,396 Z " fill="#000000"/><text fill="#000000" font-family="sans-serif" font-size="12" lengthAdjust="spacing" textLength="124" x="123" y="394.1543">TipoPrendaSuperior</text><line style="stroke:#A80036;stroke-width:1.5;" x1="95" x2="249" y1="406" y2="406"/><text fill="#000000" font-family="sans-serif" font-size="11" lengthAdjust="spacing" textLength="48" x="100" y="420.2104">REMERA,</text><text fill="#000000" font-family="sans-serif" font-size="11" lengthAdjust="spacing" textLength="46" x="100" y="433.0151">CAMISA,</text><text fill="#000000" font-family="sans-serif" font-size="11" lengthAdjust="spacing" textLength="53" x="100" y="445.8198">CHOMBA,</text><text fill="#000000" font-family="sans-serif" font-size="11" lengthAdjust="spacing" textLength="34" x="100" y="458.6245">BUZO</text><line style="stroke:#A80036;stroke-width:1.5;" x1="95" x2="249" y1="465.2188" y2="465.2188"/><!--MD5=[7cb991303a31f6ad54cf2577f4920b48]
class TipoPrendaInferior--><rect codeLine="42" fill="#FEFECE" filter="url(#fdde2kt3c9q9b)" height="86.4141" id="TipoPrendaInferior" style="stroke:#A80036;stroke-width:1.5;" width="147" x="459.5" y="380.5"/><ellipse cx="474.5" cy="396.5" fill="#EB937F" rx="11" ry="11" style="stroke:#A80036;stroke-width:1.0;"/><path d="M478.6094,402.5 L470.8906,402.5 L470.8906,390.1094 L478.6094,390.1094 L478.6094,392.2656 L473.3438,392.2656 L473.3438,394.9375 L478.1094,394.9375 L478.1094,397.0938 L473.3438,397.0938 L473.3438,400.3438 L478.6094,400.3438 L478.6094,402.5 Z " fill="#000000"/><text fill="#000000" font-family="sans-serif" font-size="12" lengthAdjust="spacing" textLength="115" x="488.5" y="400.6543">TipoPrendaInferior</text><line style="stroke:#A80036;stroke-width:1.5;" x1="460.5" x2="605.5" y1="412.5" y2="412.5"/><text fill="#000000" font-family="sans-serif" font-size="11" lengthAdjust="spacing" textLength="63" x="465.5" y="426.7104">PANTALON,</text><text fill="#000000" font-family="sans-serif" font-size="11" lengthAdjust="spacing" textLength="43" x="465.5" y="439.5151">SHORT,</text><text fill="#000000" font-family="sans-serif" font-size="11" lengthAdjust="spacing" textLength="50" x="465.5" y="452.3198">JOGGING</text><line style="stroke:#A80036;stroke-width:1.5;" x1="460.5" x2="605.5" y1="458.9141" y2="458.9141"/><!--MD5=[12600c4ad0e17bc0c6412bfb2aafb660]
class TipoCalzado--><rect codeLine="48" fill="#FEFECE" filter="url(#fdde2kt3c9q9b)" height="99.2188" id="TipoCalzado" style="stroke:#A80036;stroke-width:1.5;" width="106" x="819" y="374"/><ellipse cx="834" cy="390" fill="#EB937F" rx="11" ry="11" style="stroke:#A80036;stroke-width:1.0;"/><path d="M838.1094,396 L830.3906,396 L830.3906,383.6094 L838.1094,383.6094 L838.1094,385.7656 L832.8438,385.7656 L832.8438,388.4375 L837.6094,388.4375 L837.6094,390.5938 L832.8438,390.5938 L832.8438,393.8438 L838.1094,393.8438 L838.1094,396 Z " fill="#000000"/><text fill="#000000" font-family="sans-serif" font-size="12" lengthAdjust="spacing" textLength="74" x="848" y="394.1543">TipoCalzado</text><line style="stroke:#A80036;stroke-width:1.5;" x1="820" x2="924" y1="406" y2="406"/><text fill="#000000" font-family="sans-serif" font-size="11" lengthAdjust="spacing" textLength="50" x="825" y="420.2104">ZAPATO,</text><text fill="#000000" font-family="sans-serif" font-size="11" lengthAdjust="spacing" textLength="63" x="825" y="433.0151">ZAPATILLA,</text><text fill="#000000" font-family="sans-serif" font-size="11" lengthAdjust="spacing" textLength="43" x="825" y="445.8198">BOTAS,</text><text fill="#000000" font-family="sans-serif" font-size="11" lengthAdjust="spacing" textLength="43" x="825" y="458.6245">OJOTAS</text><line style="stroke:#A80036;stroke-width:1.5;" x1="820" x2="924" y1="465.2188" y2="465.2188"/><!--MD5=[4c336b083a630c63b24495c3838c21f1]
class TipoAccesorio--><rect codeLine="55" fill="#FEFECE" filter="url(#fdde2kt3c9q9b)" height="99.2188" id="TipoAccesorio" style="stroke:#A80036;stroke-width:1.5;" width="119" x="1138.5" y="374"/><ellipse cx="1153.5" cy="390" fill="#EB937F" rx="11" ry="11" style="stroke:#A80036;stroke-width:1.0;"/><path d="M1157.6094,396 L1149.8906,396 L1149.8906,383.6094 L1157.6094,383.6094 L1157.6094,385.7656 L1152.3438,385.7656 L1152.3438,388.4375 L1157.1094,388.4375 L1157.1094,390.5938 L1152.3438,390.5938 L1152.3438,393.8438 L1157.6094,393.8438 L1157.6094,396 Z " fill="#000000"/><text fill="#000000" font-family="sans-serif" font-size="12" lengthAdjust="spacing" textLength="87" x="1167.5" y="394.1543">TipoAccesorio</text><line style="stroke:#A80036;stroke-width:1.5;" x1="1139.5" x2="1256.5" y1="406" y2="406"/><text fill="#000000" font-family="sans-serif" font-size="11" lengthAdjust="spacing" textLength="47" x="1144.5" y="420.2104">COLLAR,</text><text fill="#000000" font-family="sans-serif" font-size="11" lengthAdjust="spacing" textLength="43" x="1144.5" y="433.0151">GORRA,</text><text fill="#000000" font-family="sans-serif" font-size="11" lengthAdjust="spacing" textLength="58" x="1144.5" y="445.8198">GUANTES,</text><text fill="#000000" font-family="sans-serif" font-size="11" lengthAdjust="spacing" textLength="45" x="1144.5" y="458.6245">BARBIJO</text><line style="stroke:#A80036;stroke-width:1.5;" x1="1139.5" x2="1256.5" y1="465.2188" y2="465.2188"/><!--MD5=[51fcf13bd288b2212fe05b04440afe95]
reverse link Prenda to PrendaSuperior--><path d="M556.42,105.48 C475.67,128.48 376.2,156.82 298.68,178.91 " fill="none" id="Prenda-backto-PrendaSuperior" style="stroke:#A80036;stroke-width:1.0;"/><polygon fill="none" points="554.57,98.72,575.73,99.98,558.41,112.19,554.57,98.72" style="stroke:#A80036;stroke-width:1.0;"/><!--MD5=[40e0540b6ced8358e5a6ff04be12ea6a]
reverse link Prenda to PrendaInferior--><path d="M624.92,132.87 C607.12,148.77 588.88,165.07 573.39,178.91 " fill="none" id="Prenda-backto-PrendaInferior" style="stroke:#A80036;stroke-width:1.0;"/><polygon fill="none" points="620.45,127.48,640.03,119.37,629.78,137.91,620.45,127.48" style="stroke:#A80036;stroke-width:1.0;"/><!--MD5=[7fb9c1f61fd83ff516ebd584c6df1c52]
reverse link Prenda to Calzado--><path d="M779.54,132.87 C797.44,148.77 815.79,165.07 831.37,178.91 " fill="none" id="Prenda-backto-Calzado" style="stroke:#A80036;stroke-width:1.0;"/><polygon fill="none" points="774.64,137.88,764.34,119.37,783.94,127.42,774.64,137.88" style="stroke:#A80036;stroke-width:1.0;"/><!--MD5=[46717b3f3edd5fe5efbc99d5adc876c9]
reverse link Prenda to Accesorio--><path d="M847.56,108.31 C921.47,130.81 1010.1,157.8 1079.73,179 " fill="none" id="Prenda-backto-Accesorio" style="stroke:#A80036;stroke-width:1.0;"/><polygon fill="none" points="845.22,114.92,828.12,102.4,849.3,101.52,845.22,114.92" style="stroke:#A80036;stroke-width:1.0;"/><!--MD5=[a57e25d13c2d18c83360743e5382a985]
link PrendaInferior to TipoPrendaInferior--><path codeLine="62" d="M533,253.27 C533,287.09 533,337.76 533,374.84 " fill="none" id="PrendaInferior-to-TipoPrendaInferior" style="stroke:#A80036;stroke-width:1.0;"/><polygon fill="#A80036" points="533,380.21,537,371.21,533,375.21,529,371.21,533,380.21" style="stroke:#A80036;stroke-width:1.0;"/><text fill="#000000" font-family="sans-serif" font-size="13" lengthAdjust="spacing" textLength="8" x="524.3875" y="369.4781">1</text><!--MD5=[8b90a164e75708cf43bfd4ba6252b156]
link PrendaSuperior to TipoPrendaSuperior--><path codeLine="63" d="M172,253.27 C172,285.22 172,332.22 172,368.58 " fill="none" id="PrendaSuperior-to-TipoPrendaSuperior" style="stroke:#A80036;stroke-width:1.0;"/><polygon fill="#A80036" points="172,373.87,176,364.87,172,368.87,168,364.87,172,373.87" style="stroke:#A80036;stroke-width:1.0;"/><text fill="#000000" font-family="sans-serif" font-size="13" lengthAdjust="spacing" textLength="8" x="163.4375" y="362.8969">1</text><!--MD5=[2385976b05b977461a37e460d643a469]
link Calzado to TipoCalzado--><path codeLine="64" d="M872,253.27 C872,285.22 872,332.22 872,368.58 " fill="none" id="Calzado-to-TipoCalzado" style="stroke:#A80036;stroke-width:1.0;"/><polygon fill="#A80036" points="872,373.87,876,364.87,872,368.87,868,364.87,872,373.87" style="stroke:#A80036;stroke-width:1.0;"/><text fill="#000000" font-family="sans-serif" font-size="13" lengthAdjust="spacing" textLength="8" x="863.4375" y="362.8969">1</text><!--MD5=[b88d4f12368699445ecdea5e88cf645b]
link Accesorio to TipoAccesorio--><path codeLine="65" d="M1198,253.27 C1198,285.22 1198,332.22 1198,368.58 " fill="none" id="Accesorio-to-TipoAccesorio" style="stroke:#A80036;stroke-width:1.0;"/><polygon fill="#A80036" points="1198,373.87,1202,364.87,1198,368.87,1194,364.87,1198,373.87" style="stroke:#A80036;stroke-width:1.0;"/><text fill="#000000" font-family="sans-serif" font-size="13" lengthAdjust="spacing" textLength="8" x="1189.4375" y="362.8969">1</text><!--MD5=[acc8d1ac5eb0e1e62c38c66fbde8ccea]
@startuml tp-qmp

class Prenda {
    - String material
    - String colorPrincipal 
    - String colorSecundario

    + method Prenda(material, colorPrincipal)
	+ method setColorSecundario(unColor)
}

class PrendaSuperior extends Prenda {
    - TipoPrendaSuperior tipo
	
	+ method PrendaSuperior(material, colorPrincipal, tipo)
}

class PrendaInferior extends Prenda {
    - TipoPrendaInferior tipo

	+ method PrendaInferior(material, colorPrincipal, tipo)
}

class Calzado extends Prenda {
	+ TipoCalzado tipo

	+ method Calzado(material, colorPrincipal, tipo)
}

class Accesorio extends Prenda {
    - TipoAccesorio tipo

	+ method Accesorio(material, colorPrincipal, tipo)
}

enum TipoPrendaSuperior {
	REMERA,
	CAMISA,
	CHOMBA,
	BUZO
}

enum TipoPrendaInferior {
	PANTALON,
	SHORT,
	JOGGING
}

enum TipoCalzado {
	ZAPATO,
	ZAPATILLA,
	BOTAS,
	OJOTAS
}

enum TipoAccesorio {
	COLLAR,
	GORRA,
	GUANTES,
	BARBIJO
}

PrendaInferior - - -> "1" TipoPrendaInferior
PrendaSuperior - - -> "1" TipoPrendaSuperior
Calzado - - -> "1" TipoCalzado
Accesorio - - -> "1" TipoAccesorio

@enduml

PlantUML version 1.2022.0(Tue Jan 11 13:16:42 ART 2022)
(GPL source distribution)
Java Runtime: OpenJDK Runtime Environment
JVM: OpenJDK 64-Bit Server VM
Default Encoding: UTF-8
Language: en
Country: US
--></g></svg>